# xmcd CD database file
#
# Track frame offsets:
#	150
#	18420
#	29869
#	46732
#	66280
#	83017
#	100561
#	115066
#	128585
#	147281
#	158427
#	173865
#	186492
#	219358
#	237380
#	248855
#	270564
#	285932
#	309849
#
# Disc length: 4336 seconds
#
# Revision: 0
# Processed by: cddbd v1.5.2PL0 Copyright (c) Steve Scherf et al.
# Submitted via: CDex 1.70
#
DISCID=fa10ee13
DTITLE=BLUES REFERENCE - Chicago Blues Festival '70
DYEAR=2002
DGENRE=Blues
TTITLE0=Shake Your Money Maker(Elmore James)
TTITLE1='ve Got To Move(James Williamson)
TTITLE2=Can't Do It(James Williamson)
TTITLE3=Homesick's Rock(James Williamson)
TTITLE4=Thats's All Right For You(James Williamson)
TTITLE5=I Believe My Baby's Gone(James Williamson)
TTITLE6=Look On Yonder Wall(Jazz Gillum)
TTITLE7=Go Away(James Williamson)
TTITLE8=Miss Durty Gurty Blues(Roosevelt Sykes)
TTITLE9=Put Up Or Shut Up(Roosevelt Sykes)
TTITLE10=Domestic Nurse Blues(Roosevelt Sykes)
TTITLE11=Thanks But No Thanks(Roosevelt Sykes)
TTITLE12=Mighty Men(Roosevelt Sykes)
TTITLE13=Ride On, Little Girl, Ride On(Roosevelt Sykes)
TTITLE14=I Feel So Bad(Eddie Taylor)
TTITLE15=Rockin' On 83 Highway(Eddie Taylor)
TTITLE16=Ride'em On Down(Eddie Taylor)
TTITLE17=38 Pistol(Eddie Taylor)
TTITLE18=Big Town Playboy(Eddie Taylor)
EXTD=YEAR: 2002
EXTT0=
EXTT1=
EXTT2=
EXTT3=
EXTT4=
EXTT5=
EXTT6=
EXTT7=
EXTT8=
EXTT9=
EXTT10=
EXTT11=
EXTT12=
EXTT13=
EXTT14=
EXTT15=
EXTT16=
EXTT17=
EXTT18=
PLAYORDER=
